<svg width="841" height="729" viewBox="0 0 841 729" fill="none" xmlns="http://www.w3.org/2000/svg">
<g id="undraw_barbecue_3x93 1">
<path id="Vector" d="M416.554 729C646.611 729 833.109 717.309 833.109 702.887C833.109 688.466 646.611 676.775 416.554 676.775C186.498 676.775 0 688.466 0 702.887C0 717.309 186.498 729 416.554 729Z" fill="#3F3D56"/>
<path id="Vector_2" d="M423.536 417.826H409.573V425.442H423.536V417.826Z" fill="#3F3D56"/>
<path id="Vector_3" d="M451.461 417.826H437.498V425.442H451.461V417.826Z" fill="#3F3D56"/>
<path id="Vector_4" d="M479.386 417.826H465.424V425.442H479.386V417.826Z" fill="#3F3D56"/>
<path id="Vector_5" d="M507.312 417.826H493.349V425.442H507.312V417.826Z" fill="#3F3D56"/>
<path id="Vector_6" d="M535.237 417.826H521.275V425.442H535.237V417.826Z" fill="#3F3D56"/>
<path id="Vector_7" d="M563.163 417.826H549.2V425.442H563.163V417.826Z" fill="#3F3D56"/>
<path id="Vector_8" d="M591.088 417.826H577.125V425.442H591.088V417.826Z" fill="#3F3D56"/>
<path id="Vector_9" d="M619.014 417.826H605.051V425.442H619.014V417.826Z" fill="#3F3D56"/>
<path id="Vector_10" d="M646.939 417.826H632.976V425.442H646.939V417.826Z" fill="#3F3D56"/>
<path id="Vector_11" d="M674.864 417.826H660.902V425.442H674.864V417.826Z" fill="#3F3D56"/>
<path id="Vector_12" d="M702.79 417.826H688.827V425.442H702.79V417.826Z" fill="#3F3D56"/>
<path id="Vector_13" d="M734.788 422.722C734.788 464.275 717.135 504.126 685.713 533.508C654.291 562.89 611.673 579.397 567.235 579.397C522.798 579.397 480.18 562.89 448.758 533.508C417.336 504.126 399.683 464.275 399.683 422.722H734.788Z" fill="#3F3D56"/>
<path id="Vector_14" d="M726.689 423.723L620.107 126.649C640.967 120.091 663.005 117.442 684.96 118.854C706.915 120.267 728.357 125.712 748.06 134.88C767.763 144.047 785.34 156.756 799.785 172.281C814.231 187.805 825.262 205.84 832.247 225.355C833.376 228.499 834.4 231.665 835.308 234.831C846.278 273.328 841.154 314.288 820.976 349.378C800.799 384.467 767.084 411.052 726.689 423.723Z" fill="#3F3D56"/>
<path id="Vector_15" d="M730.715 447.202C742.282 447.202 751.659 438.434 751.659 427.618C751.659 416.802 742.282 408.033 730.715 408.033C719.148 408.033 709.771 416.802 709.771 427.618C709.771 438.434 719.148 447.202 730.715 447.202Z" fill="#3F3D56"/>
<path id="Vector_16" d="M517.784 463.523C516.241 463.523 514.762 464.096 513.671 465.116C512.58 466.136 511.967 467.52 511.967 468.963C511.967 470.406 512.58 471.789 513.671 472.81C514.762 473.83 516.241 474.403 517.784 474.403H617.851C619.394 474.403 620.873 473.83 621.964 472.81C623.055 471.789 623.668 470.406 623.668 468.963C623.668 467.52 623.055 466.136 621.964 465.116C620.873 464.096 619.394 463.523 617.851 463.523H517.784Z" fill="#6C63FF"/>
<path id="Vector_17" d="M706.281 706.151L685.446 706.872L610.385 555.925L629.376 547.668L706.281 706.151Z" fill="#3F3D56"/>
<path id="Vector_18" d="M428.19 706.151L449.025 706.872L524.086 555.925L505.094 547.668L428.19 706.151Z" fill="#3F3D56"/>
<path id="Vector_19" d="M653.92 619.11H481.714V629.99H653.92V619.11Z" fill="#3F3D56"/>
<path id="Vector_20" d="M624.367 121.103C623.549 121.103 622.742 121.283 622.012 121.627C621.281 121.972 620.647 122.472 620.16 123.087C619.673 123.702 619.348 124.415 619.209 125.169C619.07 125.923 619.122 126.697 619.361 127.429L623.775 140.957C624.182 142.198 625.098 143.238 626.324 143.847C627.549 144.456 628.983 144.586 630.31 144.207C631.638 143.829 632.75 142.973 633.403 141.827C634.056 140.682 634.196 139.341 633.793 138.1L629.378 124.571C629.049 123.568 628.385 122.69 627.483 122.066C626.581 121.442 625.489 121.104 624.367 121.103Z" fill="#6C63FF"/>
<path id="Vector_21" d="M392.701 425.442C391.313 425.442 389.981 425.958 388.999 426.876C388.017 427.794 387.465 429.04 387.465 430.338C387.465 431.637 388.017 432.882 388.999 433.8C389.981 434.718 391.313 435.234 392.701 435.234H407.828C409.216 435.234 410.548 434.718 411.53 433.8C412.512 432.882 413.064 431.637 413.064 430.338C413.064 429.04 412.512 427.794 411.53 426.876C410.548 425.958 409.216 425.442 407.828 425.442H392.701Z" fill="#6C63FF"/>
<path id="Vector_22" d="M517.784 389.537H454.952C454.556 389.537 454.172 389.548 453.788 389.581C449.683 389.855 445.841 391.572 443.035 394.387C440.229 397.202 438.666 400.906 438.662 404.754C438.657 408.603 440.211 412.31 443.011 415.13C445.811 417.951 449.649 419.676 453.753 419.958C454.149 419.991 454.545 420.002 454.952 420.002H517.784C522.104 420.002 526.248 418.397 529.303 415.54C532.358 412.684 534.074 408.809 534.074 404.769C534.074 400.73 532.358 396.855 529.303 393.999C526.248 391.142 522.104 389.537 517.784 389.537V389.537Z" fill="#FF6584"/>
<path id="Vector_23" opacity="0.2" d="M448.622 418.794C459.327 417.51 467.751 404.878 467.751 389.537H465.424C465.424 404.541 457.069 416.738 446.807 416.738V417.956L448.622 418.794Z" fill="black"/>
<path id="Vector_24" opacity="0.2" d="M471.242 418.914V416.738C481.507 416.738 489.859 404.536 489.859 389.537H492.186C492.186 405.735 482.79 418.914 471.242 418.914Z" fill="black"/>
<path id="Vector_25" opacity="0.2" d="M495.676 418.914V416.738C505.942 416.738 514.293 404.536 514.293 389.537H516.62C516.62 405.735 507.225 418.914 495.676 418.914Z" fill="black"/>
<path id="Vector_26" d="M631.813 389.537H568.981C568.585 389.537 568.201 389.548 567.817 389.581C563.712 389.855 559.87 391.572 557.064 394.387C554.258 397.202 552.695 400.906 552.691 404.754C552.686 408.603 554.24 412.31 557.04 415.13C559.84 417.951 563.678 419.676 567.782 419.958C568.178 419.991 568.573 420.002 568.981 420.002H631.813C636.133 420.002 640.277 418.397 643.331 415.54C646.386 412.684 648.103 408.809 648.103 404.769C648.103 400.73 646.386 396.855 643.331 393.999C640.277 391.142 636.133 389.537 631.813 389.537V389.537Z" fill="#FF6584"/>
<path id="Vector_27" opacity="0.2" d="M562.651 418.794C573.356 417.51 581.78 404.878 581.78 389.537H579.453C579.453 404.541 571.098 416.738 560.836 416.738V417.956L562.651 418.794Z" fill="black"/>
<path id="Vector_28" opacity="0.2" d="M585.27 418.914V416.738C595.536 416.738 603.887 404.536 603.887 389.537H606.214C606.214 405.735 596.819 418.914 585.27 418.914Z" fill="black"/>
<path id="Vector_29" opacity="0.2" d="M609.705 418.914V416.738C619.97 416.738 628.322 404.536 628.322 389.537H630.649C630.649 405.735 621.254 418.914 609.705 418.914Z" fill="black"/>
<g id="steam">
<path id="Vector_30" d="M513.186 243.26C504.951 239.1 494.771 243.637 490.667 251C485.676 259.956 489.813 270.724 495.633 278.379C501.682 286.334 509.89 292.901 513.927 302.094C517.79 310.745 518.248 320.396 515.22 329.334C512.192 338.271 505.875 345.916 497.39 350.91C493.603 353.15 497.102 358.801 500.914 356.547C509.235 351.685 515.819 344.616 519.824 336.24C523.829 327.864 525.074 318.562 523.4 309.521C522.55 304.833 520.93 300.295 518.596 296.07C516.066 291.758 513.018 287.73 509.511 284.064C503.454 277.361 495.83 269.972 495.45 260.646C495.38 259.437 495.471 258.224 495.719 257.035C495.9 256.204 496.17 255.392 496.524 254.612C497.371 252.936 498.627 251.471 500.192 250.333C501.642 249.251 503.358 248.525 505.185 248.219C506.716 248.007 508.28 248.243 509.662 248.897C513.615 250.894 517.144 245.259 513.186 243.26V243.26Z" fill="#A3A3A3"/>
<path id="Vector_31" d="M618.236 282.748C614.729 281.695 610.983 281.55 607.396 282.329C603.808 283.109 600.514 284.784 597.864 287.175C596.495 288.493 595.48 290.096 594.905 291.852C594.329 293.609 594.21 295.468 594.555 297.277C595.221 301.233 597.892 304.746 600.79 307.578C606.46 313.118 614.396 316.701 619.15 323.061C621.258 325.772 622.581 328.946 622.99 332.275C623.234 335.267 622.648 338.267 621.287 340.984C617.74 347.725 610.699 352.31 603.274 355.262C601.538 355.952 601.156 358.344 602.022 359.728C602.505 360.458 603.271 360.987 604.16 361.205C605.048 361.423 605.993 361.313 606.797 360.899C620.462 355.467 633.105 343.301 629.336 328.353C627.353 320.491 621.277 314.942 614.733 310.117C611.483 307.89 608.414 305.44 605.55 302.79C603.287 300.542 600.937 297.474 601.352 294.428C601.519 293.369 602.073 292.397 602.92 291.677C603.948 290.799 605.115 290.074 606.379 289.528C607.929 288.834 609.611 288.433 611.327 288.35C613.044 288.266 614.761 288.502 616.38 289.043C617.272 289.265 618.222 289.151 619.025 288.724C619.828 288.298 620.42 287.594 620.674 286.763C620.901 285.929 620.774 285.045 620.319 284.297C619.865 283.548 619.118 282.993 618.236 282.748V282.748Z" fill="#A3A3A3"/>
<path id="Vector_32" d="M565.089 189.886C563.008 188.225 560.382 187.279 557.647 187.207C555.054 187.252 552.532 188.015 550.401 189.398C545.587 192.668 542.181 197.439 540.798 202.85C537.271 215.486 541.872 229.105 548.266 240.233C551.498 245.859 555.263 251.199 558.516 256.813C561.653 262.183 564.062 267.898 565.686 273.825C568.998 285.979 569.294 298.68 566.55 310.957C563.756 323.177 557.879 335.277 547.88 343.708C547.225 344.32 546.858 345.151 546.858 346.016C546.858 346.882 547.225 347.712 547.88 348.324C548.535 348.936 549.423 349.28 550.348 349.28C551.274 349.28 552.162 348.936 552.817 348.324C561.691 340.841 567.626 330.576 571.209 320.02C575.162 308.098 576.318 295.52 574.598 283.142C573.821 276.978 572.32 270.913 570.123 265.057C567.742 259.157 564.769 253.481 561.243 248.106C554.681 237.732 547.696 227.24 546.746 214.887C546.279 208.813 547.092 202.481 551.11 197.596C550.89 197.864 551.286 197.402 551.288 197.4C551.532 197.127 551.784 196.862 552.046 196.603C552.545 196.103 553.081 195.636 553.65 195.207C553.529 195.297 553.22 195.49 553.782 195.125C554.062 194.944 554.347 194.77 554.641 194.609C554.88 194.477 555.125 194.361 555.369 194.24C555.514 194.171 555.661 194.105 555.81 194.044C555.471 194.181 555.49 194.182 555.868 194.048C556.141 193.968 557.493 193.695 556.743 193.783C556.993 193.756 557.245 193.74 557.497 193.738C557.604 193.736 558.545 193.781 558.085 193.734C557.547 193.679 558.511 193.823 558.518 193.825C558.819 193.894 559.115 193.981 559.404 194.087C558.678 193.816 560.595 194.824 560.152 194.502C560.821 195.089 561.703 195.416 562.621 195.416C563.538 195.416 564.42 195.089 565.089 194.502C566.293 193.376 566.586 190.974 565.089 189.886L565.089 189.886Z" fill="#A3A3A3"/>
</g>
<path id="Vector_33" d="M297.043 680.45L270.725 686.978L222.388 478.055L276.634 473.534L297.043 680.45Z" fill="#FFB9B9"/>
<path id="Vector_34" d="M176.633 683.661L149.711 687.465L126.05 474.855L180.498 475.899L176.633 683.661Z" fill="#FFB9B9"/>
<path id="Vector_35" d="M162.771 381.126L165.257 424.518C165.349 426.114 165.072 427.71 164.445 429.197C163.819 430.684 162.858 432.028 161.627 433.137C160.396 434.246 158.924 435.094 157.312 435.624C155.699 436.154 153.984 436.354 152.282 436.209V436.209C149.499 435.973 146.895 434.829 144.922 432.979C142.95 431.129 141.736 428.69 141.492 426.088L136.991 378.113L101.543 265.615L102.617 193.296L144.51 195.305L162.771 381.126Z" fill="#FFB9B9"/>
<path id="Vector_36" d="M185.329 487.597C164.345 480.784 139.997 479.445 112.285 483.579C116.215 440.048 118.491 399.624 116.582 367.064H259.447L185.329 487.597Z" fill="#2F2E41"/>
<path id="Vector_37" d="M285.227 486.592C263.599 497.291 232.313 502.413 196.071 504.672L150.955 370.077L261.595 368.068L285.227 486.592Z" fill="#2F2E41"/>
<path id="Vector_38" d="M340.92 702.291L263.09 704.986C253.12 705.331 252.594 697.325 254.476 688.163L263.691 663.561C284.436 682.566 286.39 683.628 295.283 656.593L322.425 676.638L342.515 679.859C345.328 680.31 347.88 681.678 349.719 683.72C351.557 685.762 352.563 688.346 352.559 691.015V691.015C352.554 693.937 351.339 696.744 349.169 698.846C346.999 700.948 344.043 702.183 340.92 702.291V702.291Z" fill="#2F2E41"/>
<path id="Vector_39" d="M223.041 702.291L145.21 704.986C135.24 705.331 134.715 697.325 136.597 688.163L145.811 663.561C166.557 682.566 168.51 683.628 177.404 656.593L204.545 676.638L224.636 679.859C227.449 680.31 230.001 681.678 231.839 683.72C233.678 685.762 234.684 688.346 234.679 691.015V691.015C234.674 693.937 233.459 696.744 231.289 698.846C229.119 700.948 226.163 702.183 223.041 702.291Z" fill="#2F2E41"/>
<path id="Vector_40" d="M241.186 86.825C264.323 86.825 283.079 69.2866 283.079 47.6518C283.079 26.0171 264.323 8.47864 241.186 8.47864C218.049 8.47864 199.293 26.0171 199.293 47.6518C199.293 69.2866 218.049 86.825 241.186 86.825Z" fill="#FFB9B9"/>
<path id="Vector_41" d="M219.702 116.958L170.29 102.896L203.59 56.6914L241.186 71.7583L219.702 116.958Z" fill="#FFB9B9"/>
<path id="Vector_42" d="M265.892 379.117C215.097 389.796 158.71 385.559 110.137 373.091C121.769 312.438 116.153 247.29 104.766 194.3C95.8529 152.824 119.365 118.019 158.475 100.887C166.881 98.0682 175.627 96.2268 184.514 95.4044C211.948 93.1314 236.088 112.367 238.95 137.981L265.892 379.117Z" fill="#6C63FF"/>
<path id="Vector_43" d="M133.769 214.389L98.3208 210.371L109.063 158.141H133.769V214.389Z" fill="#6C63FF"/>
<path id="Vector_44" d="M240.6 53.8544L234.182 51.1873C232.728 50.5848 231.151 50.2852 229.561 50.3093C227.971 50.3333 226.405 50.6805 224.973 51.3266C223.54 51.9728 222.275 52.9025 221.265 54.0513C220.255 55.2001 219.524 56.5406 219.123 57.9798V57.9798L210.179 73.0909L187.903 69.7937L188.681 37.8051C189.695 31.7602 192.025 25.9742 195.527 20.8054C199.029 15.6365 203.629 11.1947 209.041 7.75499C214.452 4.31524 220.562 1.9507 226.99 0.807729C233.419 -0.335247 240.03 -0.232333 246.414 1.1101L247.022 1.23872C257.897 3.53917 272.015 11.0054 279.385 18.843L293.117 33.4459C293.768 34.1387 294.204 34.9851 294.377 35.8932C294.549 36.8013 294.452 37.7362 294.097 38.5964C293.741 39.4566 293.14 40.2092 292.359 40.7723C291.578 41.3354 290.646 41.6876 289.666 41.7905L270.886 43.7282L240.6 53.8544Z" fill="#2F2E41"/>
<g id="spatula">
<path id="Vector_45" d="M379.554 321.007L355.499 340.737C355.151 341.022 354.696 341.166 354.234 341.137C353.773 341.109 353.342 340.91 353.037 340.585C352.732 340.26 352.578 339.835 352.608 339.403C352.638 338.971 352.85 338.569 353.197 338.283L377.253 318.553L372.649 313.645L348.594 333.375C348.245 333.66 347.791 333.804 347.329 333.776C346.867 333.747 346.437 333.549 346.132 333.223C345.827 332.898 345.672 332.473 345.702 332.042C345.732 331.61 345.944 331.207 346.292 330.921L370.347 311.191L365.744 306.284L341.688 326.014C341.516 326.155 341.315 326.264 341.098 326.333C340.881 326.402 340.652 326.43 340.423 326.416C340.194 326.402 339.97 326.347 339.765 326.252C339.559 326.157 339.375 326.025 339.224 325.864C339.073 325.703 338.957 325.515 338.883 325.312C338.809 325.109 338.779 324.894 338.794 324.68C338.809 324.466 338.87 324.257 338.971 324.065C339.073 323.873 339.214 323.701 339.386 323.56L363.442 303.83L357.687 297.695L323.693 325.577C320.659 328.067 318.631 331.456 317.949 335.176C317.267 338.897 317.972 342.724 319.947 346.016L217.314 430.196L226.521 440.011L329.088 355.887C332.216 358.196 336.111 359.408 340.096 359.312C344.081 359.217 347.904 357.819 350.901 355.362L385.309 327.141L379.554 321.007Z" fill="#A3A3A3"/>
<path id="Vector_46" d="M262.67 381.126L265.156 424.518C265.247 426.114 264.97 427.71 264.344 429.197C263.717 430.684 262.756 432.028 261.525 433.137C260.294 434.246 258.823 435.094 257.21 435.624C255.598 436.154 253.882 436.354 252.18 436.209C249.398 435.973 246.793 434.829 244.821 432.979C242.848 431.129 241.634 428.69 241.39 426.088L236.889 378.113L201.442 265.615L202.516 193.296L244.409 195.305L262.67 381.126Z" fill="#FFB9B9"/>
</g>
<path id="Vector_47" d="M247.631 206.354C234.884 194.92 218.059 194.5 199.293 199.322V145.342C199.293 138.879 202.038 132.682 206.925 128.113C211.812 123.543 218.44 120.976 225.35 120.976V120.976C228.531 120.976 231.68 121.571 234.611 122.725C237.542 123.879 240.197 125.57 242.42 127.698C244.642 129.825 246.388 132.347 247.553 135.115C248.718 137.882 249.28 140.839 249.205 143.813L247.631 206.354Z" fill="#6C63FF"/>
</g>
</svg>
